<svg width="43" height="44" viewBox="0 0 43 44" fill="none" xmlns="http://www.w3.org/2000/svg">
<path d="M12 20L14 22L12 24L10 22L12 20Z" fill="#FFD7D7"/>
<path d="M21 20L23 22L21 24L19 22L21 20Z" fill="#FFD7D7"/>
<path d="M30 20L32 22L30 24L28 22L30 20Z" fill="#FFD7D7"/>
<path d="M39 20L41 22L39 24L37 22L39 20Z" fill="#FFD7D7"/>
<path d="M2 30L4 32L2 34L0 32L2 30Z" fill="#CCF2E7"/>
<path d="M11 30L13 32L11 34L9 32L11 30Z" fill="#CCF2E7"/>
<path d="M20 30L22 32L20 34L18 32L20 30Z" fill="#CCF2E7"/>
<path d="M29 30L31 32L29 34L27 32L29 30Z" fill="#CCF2E7"/>
<path d="M38 30L40 32L38 34L36 32L38 30Z" fill="#CCF2E7"/>
<path d="M2 10L4 12L2 14L0 12L2 10Z" fill="#CCF2E7"/>
<path d="M11 10L13 12L11 14L9 12L11 10Z" fill="#CCF2E7"/>
<path d="M20 10L22 12L20 14L18 12L20 10Z" fill="#CCF2E7"/>
<path d="M29 10L31 12L29 14L27 12L29 10Z" fill="#CCF2E7"/>
<path d="M38 10L40 12L38 14L36 12L38 10Z" fill="#CCF2E7"/>
<path d="M12 0L14 2L12 4L10 2L12 0Z" fill="#FFD7D7"/>
<path d="M21 0L23 2L21 4L19 2L21 0Z" fill="#FFD7D7"/>
<path d="M30 0L32 2L30 4L28 2L30 0Z" fill="#FFD7D7"/>
<path d="M39 0L41 2L39 4L37 2L39 0Z" fill="#FFD7D7"/>
<path d="M12 40L14 42L12 44L10 42L12 40Z" fill="#FFD7D7"/>
<path d="M21 40L23 42L21 44L19 42L21 40Z" fill="#FFD7D7"/>
<path d="M30 40L32 42L30 44L28 42L30 40Z" fill="#FFD7D7"/>
<path d="M39 40L41 42L39 44L37 42L39 40Z" fill="#FFD7D7"/>
</svg>
