<svg width="22" height="86" viewBox="0 0 22 86" fill="none" xmlns="http://www.w3.org/2000/svg">
<circle cx="20" cy="2" r="2" transform="rotate(90 20 2)" fill="#CCF2E7"/>
<circle cx="20" cy="11" r="2" transform="rotate(90 20 11)" fill="#CCF2E7"/>
<circle cx="20" cy="20" r="2" transform="rotate(90 20 20)" fill="#CCF2E7"/>
<circle cx="20" cy="29" r="2" transform="rotate(90 20 29)" fill="#CCF2E7"/>
<circle cx="20" cy="38" r="2" transform="rotate(90 20 38)" fill="#CCF2E7"/>
<circle cx="20" cy="47" r="2" transform="rotate(90 20 47)" fill="#CCF2E7"/>
<circle cx="20" cy="56" r="2" transform="rotate(90 20 56)" fill="#CCF2E7"/>
<circle cx="20" cy="65" r="2" transform="rotate(90 20 65)" fill="#CCF2E7"/>
<circle cx="20" cy="74" r="2" transform="rotate(90 20 74)" fill="#CCF2E7"/>
<circle cx="10" cy="12" r="2" transform="rotate(90 10 12)" fill="#FFD7D7"/>
<circle cx="10" cy="21" r="2" transform="rotate(90 10 21)" fill="#FFD7D7"/>
<circle cx="10" cy="30" r="2" transform="rotate(90 10 30)" fill="#FFD7D7"/>
<circle cx="10" cy="39" r="2" transform="rotate(90 10 39)" fill="#FFD7D7"/>
<circle cx="10" cy="48" r="2" transform="rotate(90 10 48)" fill="#FFD7D7"/>
<circle cx="10" cy="57" r="2" transform="rotate(90 10 57)" fill="#FFD7D7"/>
<circle cx="10" cy="66" r="2" transform="rotate(90 10 66)" fill="#FFD7D7"/>
<circle cx="10" cy="75" r="2" transform="rotate(90 10 75)" fill="#FFD7D7"/>
<circle cx="10" cy="84" r="2" transform="rotate(90 10 84)" fill="#FFD7D7"/>
<circle cx="-8.74228e-08" cy="2" r="2" transform="rotate(90 -8.74228e-08 2)" fill="#CCF2E7"/>
<circle cx="-8.74228e-08" cy="11" r="2" transform="rotate(90 -8.74228e-08 11)" fill="#CCF2E7"/>
<circle cx="-8.74228e-08" cy="20" r="2" transform="rotate(90 -8.74228e-08 20)" fill="#CCF2E7"/>
<circle cx="-8.74228e-08" cy="29" r="2" transform="rotate(90 -8.74228e-08 29)" fill="#CCF2E7"/>
<circle cx="-8.74228e-08" cy="38" r="2" transform="rotate(90 -8.74228e-08 38)" fill="#CCF2E7"/>
<circle cx="-8.74228e-08" cy="47" r="2" transform="rotate(90 -8.74228e-08 47)" fill="#CCF2E7"/>
<circle cx="-8.74228e-08" cy="56" r="2" transform="rotate(90 -8.74228e-08 56)" fill="#CCF2E7"/>
<circle cx="-8.74228e-08" cy="65" r="2" transform="rotate(90 -8.74228e-08 65)" fill="#CCF2E7"/>
<circle cx="-8.74228e-08" cy="74" r="2" transform="rotate(90 -8.74228e-08 74)" fill="#CCF2E7"/>
</svg>
